<svg xmlns="http://www.w3.org/2000/svg" viewBox="0 0 500 500"><defs><style>.cls-1{fill:#6c6970;stroke:#6c6970;stroke-miterlimit:10;stroke-width:5px;}</style></defs><title>homepage icon-cart</title><g id="reference"><g id="LINE-2" data-name="LINE"><path class="cls-1" d="M132.61,121.42H91.36a3.82,3.82,0,1,1,0-7.64h41.25a3.82,3.82,0,0,1,0,7.64Z"/></g><g id="SPLINE"><path class="cls-1" d="M147.46,133.13a3.82,3.82,0,0,1-3.75-3.09c-1.22-6.33-4.51-8.92-10.93-8.63a3.82,3.82,0,1,1-.34-7.63c10.2-.45,16.84,4.81,18.77,14.81a3.81,3.81,0,0,1-3,4.47A3.51,3.51,0,0,1,147.46,133.13Z"/></g><g id="LINE-3" data-name="LINE"><path class="cls-1" d="M178.72,263.72a3.83,3.83,0,0,1-3.71-2.93L143.74,130.2a3.82,3.82,0,0,1,7.43-1.78L182.44,259a3.81,3.81,0,0,1-2.82,4.6A4,4,0,0,1,178.72,263.72Z"/></g><g id="SPLINE-2" data-name="SPLINE"><path class="cls-1" d="M208.87,287.51h0c-18,0-29.68-9.24-33.86-26.72a3.82,3.82,0,1,1,7.43-1.78c3.36,14,12,20.86,26.43,20.86a3.82,3.82,0,0,1,0,7.64Z"/></g><g id="LINE-4" data-name="LINE"><path class="cls-1" d="M340.42,287.51H208.87a3.82,3.82,0,0,1,0-7.64H340.42a3.82,3.82,0,0,1,0,7.64Z"/></g><g id="SPLINE-3" data-name="SPLINE"><path class="cls-1" d="M340.42,287.51a3.82,3.82,0,0,1,0-7.64c14.33,0,23-6.77,26.39-20.69a3.82,3.82,0,1,1,7.42,1.82C370,278.34,358.27,287.51,340.42,287.51Z"/></g><g id="LINE-5" data-name="LINE"><path class="cls-1" d="M370.52,263.91a4.2,4.2,0,0,1-.92-.11,3.82,3.82,0,0,1-2.79-4.63l18.25-73.39a3.82,3.82,0,0,1,7.41,1.85L374.23,261A3.84,3.84,0,0,1,370.52,263.91Z"/></g><g id="ARC"><path class="cls-1" d="M388.77,190.53a3.71,3.71,0,0,1-.93-.12,3.82,3.82,0,0,1-2.78-4.63,10,10,0,0,0-9.72-12.48,3.82,3.82,0,0,1,0-7.64h0a17.7,17.7,0,0,1,17.1,22A3.82,3.82,0,0,1,388.77,190.53Z"/></g><g id="LINE-6" data-name="LINE"><path class="cls-1" d="M157.08,173.31a3.82,3.82,0,0,1,0-7.64H375.35a3.82,3.82,0,0,1,0,7.64Z"/></g><g id="SPLINE-4" data-name="SPLINE"><path class="cls-1" d="M200.12,381.16c-9,0-17.25-3-22.63-8.3S169,359.27,169,350.17s3.13-17.19,8.49-22.56,13.67-8.56,22.62-8.56,17.2,3.12,22.62,8.56,8.46,13.6,8.49,22.56-3.06,17.37-8.48,22.69S209.12,381.16,200.12,381.16Zm0-54.47c-6.93,0-13.21,2.3-17.21,6.31s-6.24,10.23-6.26,17.19,2.23,13.33,6.19,17.21,10.37,6.12,17.28,6.12,13.38-2.28,17.28-6.12,6.22-10.16,6.19-17.21S221.29,337,217.33,333,207.06,326.69,200.12,326.69Z"/></g><g id="SPLINE-5" data-name="SPLINE"><path class="cls-1" d="M339.84,381.46h-.14c-9,0-17.19-3.12-22.56-8.49s-8.56-13.67-8.56-22.62,3.12-17.19,8.56-22.62,13.6-8.46,22.56-8.49,17.37,3.06,22.69,8.49,8.3,13.62,8.3,22.62-3,17.25-8.3,22.63S348.88,381.46,339.84,381.46Zm0-54.58h-.12c-7,0-13.23,2.31-17.19,6.26s-6.31,10.28-6.31,17.21,2.3,13.21,6.31,17.22,10.23,6.23,17.19,6.26h.12c7,0,13.23-2.26,17.09-6.2s6.12-10.36,6.12-17.28-2.29-13.37-6.12-17.27S346.84,326.88,339.84,326.88Z"/></g></g></svg>