<svg xmlns="http://www.w3.org/2000/svg" viewBox="0 0 500 500"><defs><style>.cls-1,.cls-3{fill:#6c6970;}.cls-1{stroke:#6c6970;stroke-miterlimit:10;stroke-width:5px;}.cls-2{fill:#262bd5;}</style></defs><title>homepage icon-dashboard</title><g id="reference"><g id="SPLINE"><path class="cls-1" d="M460.82,377.61a3.82,3.82,0,0,1-3.82-3.82c0-118.92-90.44-212.07-205.88-212.07a3.82,3.82,0,0,1,0-7.64c119.73,0,213.52,96.51,213.52,219.71A3.82,3.82,0,0,1,460.82,377.61Z"/></g><g id="SPLINE-2" data-name="SPLINE"><path class="cls-1" d="M41.42,377.61a3.82,3.82,0,0,1-3.82-3.82c0-123.2,93.79-219.71,213.52-219.71a3.82,3.82,0,0,1,0,7.64c-115.45,0-205.88,93.15-205.88,212.07A3.82,3.82,0,0,1,41.42,377.61Z"/></g><g id="SPLINE-3" data-name="SPLINE"><g id="_Group_" data-name="&lt;Group&gt;"><path class="cls-2" d="M341.87,276.65h.06a28.65,28.65,0,0,1-2.61,10.2c-8.09,19.39-17.18,38.18-26,57.41-8.31,18.06-16.35,36.52-29.59,51-6.15,6.76-13.47,12.69-22.17,15-8.53,2.27-18.51,1.05-27-2.44a44.14,44.14,0,0,1-25.27-26.88c-2.88-8.36-3.54-18-.83-26.1,2.66-7.81,8.48-14.18,14.8-19.67,14.91-13,32.92-21.34,50.76-29.7,19.23-9,38.35-17.9,57.86-26.11C336.72,277.26,339.27,276.65,341.87,276.65Z"/><path class="cls-2" d="M331.9,283.18a3.82,3.82,0,0,1-1.53-7.32c5.06-2.21,8.18-3,11.5-3a3.82,3.82,0,0,1,0,7.64c-1.87,0-3.86.39-8.44,2.39A3.79,3.79,0,0,1,331.9,283.18Z"/><path class="cls-2" d="M252.28,415.24a50.8,50.8,0,0,1-19.15-3.89,47.71,47.71,0,0,1-27.43-29.17c-3.35-9.74-3.66-20.15-.84-28.55,3.26-9.58,10.64-16.77,15.92-21.35,15.11-13.15,33.34-21.69,51-30l.68-.31c18.87-8.81,38.37-17.92,58-26.17a3.82,3.82,0,0,1,3,7.05c-19.49,8.19-38.93,17.26-57.72,26l-.67.31c-17.15,8-34.89,16.36-49.2,28.81-7.32,6.35-11.67,12.08-13.69,18-2.29,6.83-2,15.45.83,23.63A40.22,40.22,0,0,0,236,404.29c8.15,3.35,17.33,4.21,24.56,2.28,6.83-1.78,13.47-6.31,20.32-13.84,12-13.2,19.86-30.25,27.43-46.75l1.52-3.32q3.63-7.91,7.29-15.74c6.29-13.54,12.8-27.53,18.65-41.55a3.82,3.82,0,0,1,7.05,2.95c-5.91,14.15-12.45,28.22-18.78,41.82q-3.63,7.83-7.26,15.71l-1.53,3.32c-7.81,17-15.88,34.63-28.72,48.7-7.88,8.66-15.73,13.92-24,16.09A40.34,40.34,0,0,1,252.28,415.24Z"/><path class="cls-2" d="M339.32,290.67a3.91,3.91,0,0,1-1.52-.32,3.82,3.82,0,0,1-2-5,25,25,0,0,0,2.29-8.81,3.89,3.89,0,0,1,3.94-3.69,3.83,3.83,0,0,1,3.7,3.94,32.13,32.13,0,0,1-2.92,11.59A3.82,3.82,0,0,1,339.32,290.67Z"/></g></g><g id="CIRCLE"><path class="cls-3" d="M411.83,374.44a11.09,11.09,0,1,1,11.08,11.08,11.09,11.09,0,0,1-11.08-11.08Z"/></g><g id="CIRCLE-2" data-name="CIRCLE"><path class="cls-3" d="M68.24,373.14a11.09,11.09,0,1,1,11.08,11.08,11.08,11.08,0,0,1-11.08-11.08Z"/></g><g id="CIRCLE-3" data-name="CIRCLE"><path class="cls-3" d="M361.05,251.85a11.09,11.09,0,1,1,11.09,11.09,11.09,11.09,0,0,1-11.09-11.09Z"/></g><g id="CIRCLE-4" data-name="CIRCLE"><path class="cls-3" d="M239.39,202a11.08,11.08,0,1,1,11.08,11.09A11.08,11.08,0,0,1,239.39,202Z"/></g><g id="CIRCLE-5" data-name="CIRCLE"><path class="cls-3" d="M118.1,252.77a11.09,11.09,0,1,1,11.08,11.08,11.08,11.08,0,0,1-11.08-11.08Z"/></g></g></svg>